{
  "accessors": [
    {
      "bufferView": 2,
      "componentType": 5126,
      "count": 18426,
      "max": [
        0.23308199644088745,
        0.11534000188112259,
        0.4005739986896515
      ],
      "min": [
        -0.23308199644088745,
        -0.33762499690055847,
        -0.05329899862408638
      ],
      "type": "VEC3"
    },
    {
      "bufferView": 2,
      "byteOffset": 221112,
      "componentType": 5126,
      "count": 18426,
      "max": [
        1.0,
        1.0,
        1.0
      ],
      "min": [
        -1.0,
        -1.0,
        -1.0
      ],
      "type": "VEC3"
    },
    {
      "bufferView": 3,
      "componentType": 5126,
      "count": 18426,
      "max": [
        0.9999073147773743,
        0.9996249675750732,
        0.9999956488609314,
        1.0
      ],
      "min": [
        -0.9999052882194519,
        -0.9996219873428345,
        -0.9999959468841553,
        -1.0
      ],
      "type": "VEC4"
    },
    {
      "bufferView": 1,
      "componentType": 5126,
      "count": 18426,
      "max": [
        1.0107500553131104,
        0.9174000024795532
      ],
      "min": [
        0.0019531298894435167,
        0.0019531298894435167
      ],
      "type": "VEC2"
    },
    {
      "bufferView": 0,
      "componentType": 5125,
      "count": 101346,
      "type": "SCALAR"
    },
    {
      "bufferView": 2,
      "byteOffset": 442224,
      "componentType": 5126,
      "count": 10738,
      "max": [
        1.0,
        0.33762499690055847,
        0.27974599599838257
      ],
      "min": [
        -1.0,
        -0.09336759895086288,
        -0.4005739986896515
      ],
      "type": "VEC3"
    },
    {
      "bufferView": 2,
      "byteOffset": 571080,
      "componentType": 5126,
      "count": 10738,
      "max": [
        0.9522292613983154,
        0.991416335105896,
        0.9982991218566895
      ],
      "min": [
        -0.9522366523742676,
        -0.9993093609809875,
        -0.997757613658905
      ],
      "type": "VEC3"
    },
    {
      "bufferView": 3,
      "byteOffset": 294816,
      "componentType": 5126,
      "count": 10738,
      "max": [
        0.9991697072982788,
        0.5478116869926453,
        0.9224998354911804,
        1.0
      ],
      "min": [
        -0.9995113015174866,
        -0.8281959295272827,
        -0.9999794960021973,
        -1.0
      ],
      "type": "VEC4"
    },
    {
      "bufferView": 1,
      "byteOffset": 147408,
      "componentType": 5126,
      "count": 10738,
      "max": [
        0.9757059812545776,
        0.8507649898529053
      ],
      "min": [
        0.4252749979496002,
        0.6381480097770691
      ],
      "type": "VEC2"
    },
    {
      "bufferView": 0,
      "byteOffset": 405384,
      "componentType": 5125,
      "count": 41058,
      "type": "SCALAR"
    }
  ],
  "asset": {
    "extras": {
      "author": "Abdelrahman mamdouh (https://sketchfab.com/abdo.artist2)",
      "license": "CC-BY-4.0 (http://creativecommons.org/licenses/by/4.0/)",
      "source": "https://sketchfab.com/3d-models/golden-snitch-harry-potter-ef6d102242004670b2974f53dc6c77a1",
      "title": "Golden Snitch [ harry potter ]"
    },
    "generator": "Sketchfab-12.67.0",
    "version": "2.0"
  },
  "bufferViews": [
    {
      "buffer": 0,
      "byteLength": 569616,
      "name": "floatBufferViews",
      "target": 34963
    },
    {
      "buffer": 0,
      "byteLength": 233312,
      "byteOffset": 569616,
      "byteStride": 8,
      "name": "floatBufferViews",
      "target": 34962
    },
    {
      "buffer": 0,
      "byteLength": 699936,
      "byteOffset": 802928,
      "byteStride": 12,
      "name": "floatBufferViews",
      "target": 34962
    },
    {
      "buffer": 0,
      "byteLength": 466624,
      "byteOffset": 1502864,
      "byteStride": 16,
      "name": "floatBufferViews",
      "target": 34962
    }
  ],
  "buffers": [
    {
      "byteLength": 1969488,
      "uri": "scene.bin"
    }
  ],
  "images": [
    {
      "uri": "textures/DefaultMaterial_baseColor.jpeg"
    },
    {
      "uri": "textures/DefaultMaterial_metallicRoughness.png"
    },
    {
      "uri": "textures/DefaultMaterial_normal.png"
    },
    {
      "uri": "textures/gold_baseColor.jpeg"
    },
    {
      "uri": "textures/gold_metallicRoughness.png"
    },
    {
      "uri": "textures/gold_normal.png"
    }
  ],
  "materials": [
    {
      "doubleSided": true,
      "name": "DefaultMaterial",
      "normalTexture": {
        "index": 2
      },
      "occlusionTexture": {
        "index": 1
      },
      "pbrMetallicRoughness": {
        "baseColorTexture": {
          "index": 0
        },
        "metallicRoughnessTexture": {
          "index": 1
        }
      }
    },
    {
      "doubleSided": true,
      "name": "gold",
      "normalTexture": {
        "index": 5
      },
      "occlusionTexture": {
        "index": 4
      },
      "pbrMetallicRoughness": {
        "baseColorTexture": {
          "index": 3
        },
        "metallicRoughnessTexture": {
          "index": 4
        }
      }
    }
  ],
  "meshes": [
    {
      "name": "defaultMaterial",
      "primitives": [
        {
          "attributes": {
            "NORMAL": 1,
            "POSITION": 0,
            "TANGENT": 2,
            "TEXCOORD_0": 3
          },
          "indices": 4,
          "material": 1,
          "mode": 4
        }
      ]
    },
    {
      "name": "defaultMaterial",
      "primitives": [
        {
          "attributes": {
            "NORMAL": 6,
            "POSITION": 5,
            "TANGENT": 7,
            "TEXCOORD_0": 8
          },
          "indices": 9,
          "material": 0,
          "mode": 4
        }
      ]
    }
  ],
  "nodes": [
    {
      "children": [
        1
      ],
      "matrix": [
        1.0,
        0.0,
        0.0,
        0.0,
        0.0,
        2.220446049250313e-16,
        -1.0,
        0.0,
        0.0,
        1.0,
        2.220446049250313e-16,
        0.0,
        0.0,
        4.699999944790533e-09,
        4.199999903420349e-09,
        1.0
      ],
      "name": "Sketchfab_model"
    },
    {
      "children": [
        2,
        4
      ],
      "matrix": [
        1.0,
        0.0,
        0.0,
        0.0,
        0.0,
        -4.371139006309477e-08,
        0.999999999999999,
        0.0,
        0.0,
        -0.999999999999999,
        -4.371139006309477e-08,
        0.0,
        0.0,
        0.0,
        0.0,
        1.0
      ],
      "name": "Collada visual scene group"
    },
    {
      "children": [
        3
      ],
      "name": "snitch_body"
    },
    {
      "mesh": 0,
      "name": "defaultMaterial"
    },
    {
      "children": [
        5
      ],
      "name": "Connect"
    },
    {
      "mesh": 1,
      "name": "defaultMaterial"
    }
  ],
  "samplers": [
    {
      "magFilter": 9729,
      "minFilter": 9987,
      "wrapS": 10497,
      "wrapT": 10497
    }
  ],
  "scene": 0,
  "scenes": [
    {
      "name": "Sketchfab_Scene",
      "nodes": [
        0
      ]
    }
  ],
  "textures": [
    {
      "sampler": 0,
      "source": 0
    },
    {
      "sampler": 0,
      "source": 1
    },
    {
      "sampler": 0,
      "source": 2
    },
    {
      "sampler": 0,
      "source": 3
    },
    {
      "sampler": 0,
      "source": 4
    },
    {
      "sampler": 0,
      "source": 5
    }
  ]
}
