{
  "accessors": [
    {
      "bufferView": 2,
      "componentType": 5126,
      "count": 3350,
      "max": [
        222.8275146484375,
        -0.00394799979403615,
        186.18223571777344
      ],
      "min": [
        23.01519012451172,
        -33.960594177246094,
        128.9640350341797
      ],
      "type": "VEC3"
    },
    {
      "bufferView": 2,
      "byteOffset": 40200,
      "componentType": 5126,
      "count": 3350,
      "max": [
        0.9999973773956299,
        1.0,
        1.0
      ],
      "min": [
        -1.0,
        -1.0,
        -1.0
      ],
      "type": "VEC3"
    },
    {
      "bufferView": 1,
      "componentType": 5126,
      "count": 3350,
      "max": [
        0.9468169808387756,
        0.9985340237617493
      ],
      "min": [
        -2.099999983329326e-05,
        -1.5999999959603883e-05
      ],
      "type": "VEC2"
    },
    {
      "bufferView": 0,
      "componentType": 5125,
      "count": 7464,
      "type": "SCALAR"
    },
    {
      "bufferView": 2,
      "byteOffset": 80400,
      "componentType": 5126,
      "count": 19603,
      "max": [
        265.2481689453125,
        0.002099999925121665,
        282.5954895019531
      ],
      "min": [
        19.8134765625,
        -62.126243591308594,
        32.595481872558594
      ],
      "type": "VEC3"
    },
    {
      "bufferView": 2,
      "byteOffset": 315636,
      "componentType": 5126,
      "count": 19603,
      "max": [
        1.0,
        1.0,
        1.0
      ],
      "min": [
        -1.0,
        -1.0,
        -1.0
      ],
      "type": "VEC3"
    },
    {
      "bufferView": 1,
      "byteOffset": 26800,
      "componentType": 5126,
      "count": 19603,
      "max": [
        0.9998030066490173,
        1.0
      ],
      "min": [
        -0.0009879999561235309,
        -0.0011070000473409891
      ],
      "type": "VEC2"
    },
    {
      "bufferView": 0,
      "byteOffset": 29856,
      "componentType": 5125,
      "count": 47592,
      "type": "SCALAR"
    }
  ],
  "asset": {
    "extras": {
      "author": "dwsd (https://sketchfab.com/dwsd)",
      "license": "CC-BY-4.0 (http://creativecommons.org/licenses/by/4.0/)",
      "source": "https://sketchfab.com/3d-models/f-14-tomcat-top-gun-gear-down-downloadable-4e54e7cbaa9d4d1094b0a6b29bc2e065",
      "title": "F-14 Tomcat Top Gun (Gear Down) Downloadable"
    },
    "generator": "Sketchfab-12.68.0",
    "version": "2.0"
  },
  "bufferViews": [
    {
      "buffer": 0,
      "byteLength": 220224,
      "name": "floatBufferViews",
      "target": 34963
    },
    {
      "buffer": 0,
      "byteLength": 183624,
      "byteOffset": 220224,
      "byteStride": 8,
      "name": "floatBufferViews",
      "target": 34962
    },
    {
      "buffer": 0,
      "byteLength": 550872,
      "byteOffset": 403848,
      "byteStride": 12,
      "name": "floatBufferViews",
      "target": 34962
    }
  ],
  "buffers": [
    {
      "byteLength": 954720,
      "uri": "scene.bin"
    }
  ],
  "images": [
    {
      "uri": "textures/White_baseColor.png"
    }
  ],
  "materials": [
    {
      "doubleSided": true,
      "name": "White",
      "pbrMetallicRoughness": {
        "baseColorTexture": {
          "index": 0
        },
        "metallicFactor": 0.0
      }
    }
  ],
  "meshes": [
    {
      "name": "Object_0",
      "primitives": [
        {
          "attributes": {
            "NORMAL": 1,
            "POSITION": 0,
            "TEXCOORD_0": 2
          },
          "indices": 3,
          "material": 0,
          "mode": 4
        }
      ]
    },
    {
      "name": "Object_1",
      "primitives": [
        {
          "attributes": {
            "NORMAL": 5,
            "POSITION": 4,
            "TEXCOORD_0": 6
          },
          "indices": 7,
          "material": 0,
          "mode": 4
        }
      ]
    }
  ],
  "nodes": [
    {
      "children": [
        1
      ],
      "matrix": [
        1.0,
        -4.440892098500626e-16,
        4.978996314197961e-17,
        0.0,
        -4.440892098500626e-16,
        -1.0,
        -4.440892098500626e-16,
        0.0,
        4.978996314197971e-17,
        4.440892098500626e-16,
        -1.0,
        0.0,
        0.0,
        126.53354644775386,
        188.65740966796878,
        1.0
      ],
      "name": "Sketchfab_model"
    },
    {
      "children": [
        2,
        3
      ],
      "name": "F-14 Gear Down.obj.cleaner.materialmerger.gles"
    },
    {
      "mesh": 0,
      "name": "Object_2"
    },
    {
      "mesh": 1,
      "name": "Object_3"
    }
  ],
  "samplers": [
    {
      "magFilter": 9729,
      "minFilter": 9987,
      "wrapS": 10497,
      "wrapT": 10497
    }
  ],
  "scene": 0,
  "scenes": [
    {
      "name": "Sketchfab_Scene",
      "nodes": [
        0
      ]
    }
  ],
  "textures": [
    {
      "sampler": 0,
      "source": 0
    }
  ]
}
